<?xml version="1.0" encoding="UTF-8" standalone="no"?>
<svg
   class="img-fluid"
   id="outputsvg"
   width="1582.733"
   height="446.85132"
   viewBox="0 0 15827.33 4468.5132"
   version="1.1"
   sodipodi:docname="nexus-logo.svg"
   inkscape:version="1.4.2 (ebf0e940, 2025-05-08)"
   xmlns:inkscape="http://www.inkscape.org/namespaces/inkscape"
   xmlns:sodipodi="http://sodipodi.sourceforge.net/DTD/sodipodi-0.dtd"
   xmlns="http://www.w3.org/2000/svg"
   xmlns:svg="http://www.w3.org/2000/svg">
  <defs
     id="defs1" />
  <sodipodi:namedview
     id="namedview1"
     pagecolor="#ffffff"
     bordercolor="#000000"
     borderopacity="0.25"
     inkscape:showpageshadow="2"
     inkscape:pageopacity="0.0"
     inkscape:pagecheckerboard="0"
     inkscape:deskcolor="#d1d1d1"
     inkscape:zoom="0.17859676"
     inkscape:cx="918.26976"
     inkscape:cy="940.66658"
     inkscape:window-width="1152"
     inkscape:window-height="667"
     inkscape:window-x="0"
     inkscape:window-y="25"
     inkscape:window-maximized="1"
     inkscape:current-layer="outputsvg" />
  <g
     id="texts"
     transform="translate(-1134.8289,-1124.4081)" />
  <g
     id="g2"
     transform="translate(-2254.6701,-7451.5107)">
    <g
       id="l3OpzkTYFpECSHd3vlkBeH8"
       fill="#623db3">
      <g
         id="g1">
        <path
           id="p12lRk0ILz"
           d="m 7324,11905 c -329,-44 -621,-183 -839,-400 -110,-109 -176,-200 -240,-330 -103,-208 -157,-420 -177,-693 -37,-515 88,-942 370,-1268 191,-222 486,-391 789,-454 152,-31 410,-47 540,-32 478,53 803,249 1025,619 130,215 194,452 218,801 16,240 14,325 -9,346 -17,15 -104,17 -1100,23 -1081,6 -1081,6 -1081,45 0,121 69,326 152,449 74,111 149,178 263,234 122,61 186,76 325,76 274,1 472,-94 655,-314 40,-47 40,-47 385,-53 396,-7 396,-7 371,63 -43,123 -165,330 -249,425 -26,29 -51,59 -57,65 -24,31 -176,155 -241,196 -131,84 -318,156 -504,193 -114,23 -457,28 -596,9 z m 976,-1924 c 0,-7 -7,-47 -16,-89 -60,-290 -200,-472 -421,-546 -269,-91 -569,-37 -756,135 -100,91 -185,227 -234,374 -32,95 -35,113 -19,122 25,14 1446,17 1446,4 z" />
        <path
           id="pty07VW1C"
           d="m 13110,11905 c -222,-36 -417,-139 -567,-299 -120,-130 -198,-307 -239,-547 -14,-81 -17,-237 -21,-1166 -3,-749 -1,-1078 6,-1091 11,-20 20,-20 373,-19 200,1 369,6 376,10 9,6 12,198 12,905 0,523 4,941 10,1003 30,321 148,517 350,584 68,23 240,26 319,6 154,-39 288,-116 402,-230 126,-126 183,-251 209,-455 6,-49 10,-422 10,-942 0,-677 3,-864 13,-872 14,-12 695,-11 715,1 9,7 12,320 12,1515 0,829 -4,1512 -8,1519 -11,17 -669,31 -700,14 -20,-11 -22,-19 -22,-114 0,-56 -3,-146 -7,-199 -6,-93 -16,-119 -30,-80 -12,32 -91,128 -157,189 -135,127 -275,203 -466,255 -98,27 -457,35 -590,13 z" />
        <path
           id="pQCaNqcCt"
           d="m 16491,11904 c -452,-55 -777,-250 -929,-559 -74,-149 -142,-406 -114,-424 16,-10 312,-21 542,-21 123,0 170,3 177,13 5,6 19,44 31,83 39,125 108,202 237,267 193,96 525,94 719,-5 62,-32 141,-113 167,-171 45,-103 25,-224 -52,-312 -66,-75 -174,-108 -569,-175 -491,-84 -662,-138 -858,-273 -146,-101 -241,-236 -294,-422 -20,-69 -23,-102 -23,-245 0,-185 12,-251 71,-378 139,-304 455,-499 894,-552 109,-13 352,-13 460,0 496,60 823,263 972,605 33,74 75,218 84,285 11,84 26,80 -336,80 -251,0 -320,-3 -328,-13 -6,-7 -20,-40 -30,-74 -50,-161 -182,-260 -403,-304 -119,-24 -292,-21 -389,5 -140,39 -257,129 -280,217 -7,24 -10,69 -7,100 6,71 41,126 110,173 101,69 222,106 552,166 615,112 795,178 966,357 156,162 221,341 221,604 -1,441 -229,743 -673,895 -251,85 -606,116 -918,78 z" />
        <path
           id="pvBdysj2S"
           d="m 2335,11850 c -60,-5 -60,-5 -66,-110 -11,-176 -20,-3924 -10,-3939 7,-11 79,-13 390,-13 427,0 406,-4 459,74 16,24 139,216 274,428 135,212 332,520 438,685 106,165 264,410 350,545 86,135 219,342 295,460 76,118 206,322 289,452 83,131 155,238 160,238 5,0 6,-202 2,-467 -3,-258 -7,-900 -8,-1429 -2,-764 0,-964 10,-976 11,-13 60,-15 379,-12 335,3 369,5 380,20 10,14 13,329 13,1563 0,850 3,1746 6,1991 5,367 4,448 -7,462 -13,16 -48,18 -395,24 -260,4 -395,2 -422,-5 -46,-13 -17,27 -317,-441 -188,-294 -462,-722 -636,-993 -36,-56 -160,-248 -276,-427 -115,-179 -272,-422 -348,-540 -170,-264 -267,-402 -284,-408 -10,-3 -12,4 -7,29 8,41 28,2725 21,2756 -4,16 -15,24 -38,28 -43,7 -577,11 -652,5 z" />
        <path
           id="p7CwjNbun"
           d="m 9054,11847 c -26,-15 -14,-44 69,-163 46,-65 123,-177 172,-249 49,-71 109,-157 132,-190 132,-187 368,-549 482,-738 131,-219 131,-219 30,-365 -56,-81 -192,-286 -302,-457 -330,-510 -471,-720 -554,-823 -47,-59 -52,-77 -25,-90 12,-7 774,-9 824,-3 3,1 32,43 64,94 32,50 133,207 224,347 92,140 197,306 235,368 37,61 71,112 75,112 4,0 43,-55 86,-122 200,-314 518,-772 544,-785 22,-10 782,-12 803,-1 29,15 19,47 -42,126 -120,158 -931,1346 -931,1365 0,10 139,231 218,347 305,447 716,938 931,1114 72,59 84,83 54,107 -22,19 -631,27 -713,9 -204,-44 -427,-270 -812,-819 -52,-74 -99,-136 -105,-138 -25,-9 -344,465 -597,885 -21,34 -46,66 -56,72 -21,11 -785,9 -806,-3 z" />
      </g>
    </g>
    <circle
       style="fill:#623db3;fill-opacity:1;stroke-width:3.62313"
       id="path1"
       cx="10516.745"
       cy="8011.5107"
       r="560" />
  </g>
</svg>
