<?xml version="1.0" encoding="UTF-8" standalone="no"?>
<svg
   class="img-fluid"
   id="outputsvg"
   width="128"
   height="128"
   viewBox="0 0 1280 1280"
   version="1.1"
   sodipodi:docname="nexus-icon.svg"
   inkscape:version="1.4.2 (ebf0e940, 2025-05-08)"
   inkscape:export-filename="nexus-icon.png"
   inkscape:export-xdpi="300"
   inkscape:export-ydpi="300"
   xmlns:inkscape="http://www.inkscape.org/namespaces/inkscape"
   xmlns:sodipodi="http://sodipodi.sourceforge.net/DTD/sodipodi-0.dtd"
   xmlns="http://www.w3.org/2000/svg"
   xmlns:svg="http://www.w3.org/2000/svg">
  <defs
     id="defs1" />
  <sodipodi:namedview
     id="namedview1"
     pagecolor="#ffffff"
     bordercolor="#000000"
     borderopacity="0.25"
     inkscape:showpageshadow="2"
     inkscape:pageopacity="0.0"
     inkscape:pagecheckerboard="0"
     inkscape:deskcolor="#d1d1d1"
     inkscape:zoom="1.6127382"
     inkscape:cx="-0.31003172"
     inkscape:cy="125.87288"
     inkscape:window-width="1152"
     inkscape:window-height="667"
     inkscape:window-x="0"
     inkscape:window-y="25"
     inkscape:window-maximized="1"
     inkscape:current-layer="g2" />
  <g
     id="texts"
     transform="translate(-7934.558,-1132.0068)" />
  <rect
     style="fill:#623db3;fill-opacity:1;stroke-width:10"
     id="rect2"
     width="1280"
     height="1280"
     x="0"
     y="0"
     rx="100"
     ry="100" />
  <g
     id="g2"
     transform="matrix(0.24370209,0,0,0.24370209,-1913.6421,-1718.1365)">
    <g
       id="l3OpzkTYFpECSHd3vlkBeH8"
       fill="#623db3"
       style="fill:#ffffff">
      <g
         id="g1"
         style="fill:#ffffff">
        <path
           id="p7CwjNbun"
           d="m 9054,11847 c -26,-15 -14,-44 69,-163 46,-65 123,-177 172,-249 49,-71 109,-157 132,-190 132,-187 368,-549 482,-738 131,-219 131,-219 30,-365 -56,-81 -192,-286 -302,-457 -330,-510 -471,-720 -554,-823 -47,-59 -52,-77 -25,-90 12,-7 774,-9 824,-3 3,1 32,43 64,94 32,50 133,207 224,347 92,140 197,306 235,368 37,61 71,112 75,112 4,0 43,-55 86,-122 200,-314 518,-772 544,-785 22,-10 782,-12 803,-1 29,15 19,47 -42,126 -120,158 -931,1346 -931,1365 0,10 139,231 218,347 305,447 716,938 931,1114 72,59 84,83 54,107 -22,19 -631,27 -713,9 -204,-44 -427,-270 -812,-819 -52,-74 -99,-136 -105,-138 -25,-9 -344,465 -597,885 -21,34 -46,66 -56,72 -21,11 -785,9 -806,-3 z"
           style="fill:#ffffff" />
      </g>
    </g>
    <circle
       style="fill:#ffffff;fill-opacity:1;stroke-width:3.62313"
       id="path1"
       cx="10516.745"
       cy="8011.5107"
       r="560" />
  </g>
</svg>
